<svg id="svg" style="stroke:rgb(0,0,0);stroke-width:10px;height:900px;width:1600px;background-color:#EEE;top:0px; left0px; position:absolute;" version="1.1" viewBox="0 0 1600 900"><path fill="none" d="M784 179 L786 179 L798 185 L810 189 L819 195 L820 198 L812 203 L798 207 L786 213 L778 219 L780 225 L791 229 L800 234 L806 241 L811 251 L811 261 L806 270 L801 278 L794 284 L789 287 L787 289 L787 292 L800 298 L810 301 L820 301 L828 300 L835 297 L847 292 L856 287 L864 284 L865 282 L860 279 L853 277 L846 274 L839 268 L835 262 L837 257 L838 250 L841 246 L847 243 L855 243 L861 243 L865 244 L867 246 L868 246 L868 244 L868 242 L868 239 L869 231 L870 223 L873 216 L876 212 L880 212 L883 213 L882 216 L882 220 L880 224 L878 226 L868 225 L859 220 L855 215 L851 211 L850 206 L848 203 L841 203 L839 205 L837 208 L837 211 L835 211 L833 212 L831 213 L829 213 L828 213 L826 214 L825 214 L823 216 L821 221 L821 226 L823 231 L826 237 L829 240 L829 244 L828 247 L828 247 L830 247 L835 247 L847 248 L857 248 L864 249 L868 250 L870 250 L873 249 L876 248 L879 246 L885 243 L887 241 L889 237 L893 230 L896 222 L900 215 L900 210 L897 203 L895 198 L893 194 L892 189 L889 188 L885 188 L879 188 L875 188 L870 188 L867 188 L861 189 L853 193 L848 201 L848 208 L849 215 L852 223 L855 225 L860 231 "></path><path fill="none" d="M760 449 L764 448 L774 447 L782 447 L786 448 L786 449 L785 451 L782 452 L778 452 L778 452 L778 451 L780 450 L785 449 L789 449 L789 450 L788 452 L783 455 L775 458 L768 458 L764 457 L764 455 L768 451 L773 448 L778 447 L784 447 L785 447 L785 448 L782 449 L777 451 L769 455 L762 455 L759 453 L759 453 L762 451 L768 450 L776 450 L779 450 L778 451 L775 452 L768 453 L758 453 L752 452 L746 450 L747 449 L752 448 L760 447 L769 447 L773 449 L773 451 L768 452 L760 453 L752 452 L744 451 L741 448 L744 446 L752 442 L761 439 L771 438 L780 437 L787 438 L787 439 L782 441 L769 443 L757 446 L749 444 L747 443 L748 442 L752 441 L759 441 L767 442 L771 443 L771 444 L770 444 L770 444 L776 450 "></path><path fill="none" d="M1129 552 L1115 557 L1097 556 L1083 551 L1068 541 L1056 528 L1044 510 L1033 491 L1013 475 L992 471 L975 470 L964 468 L961 461 L966 451 L975 433 L980 423 L982 420 L980 421 L986 426 "></path><path fill="none" d="M766 187 L766 188 L768 192 L770 195 L769 197 L768 200 L766 201 L760 203 L757 204 L756 206 L755 207 L755 208 L755 210 L755 210 L755 211 L755 213 L755 216 L756 219 L757 222 L758 224 L759 225 L761 226 L762 228 L764 229 L765 231 L768 234 L770 239 L771 242 L773 246 L773 249 L773 253 L773 256 L773 260 L775 267 L775 275 L774 283 L773 289 L769 298 L766 307 L760 319 L753 329 L747 338 L735 347 L724 353 L711 359 L698 362 L679 368 L666 368 L647 364 L631 358 L616 350 L604 340 L593 329 L585 317 L578 302 L578 287 L579 273 L584 258 L591 244 L601 230 L615 216 L635 203 L651 196 L667 192 L683 189 L698 189 L713 192 L720 194 L724 197 L724 202 L723 205 L721 208 L726 214 "></path><path fill="none" d="M642 647 L642 648 L643 647 L646 640 L649 630 L650 623 L650 617 L650 610 L650 602 L650 593 L650 583 L649 575 L647 566 L646 558 L643 551 L640 546 L637 538 L633 531 L629 524 L624 519 L622 512 L619 505 L613 497 L608 491 L603 483 L598 474 L594 465 L589 455 L585 444 L580 433 L576 419 L571 408 L568 398 L562 387 L558 377 L555 367 L553 357 L553 348 L553 338 L556 325 L558 316 L560 306 L561 297 L562 287 L564 278 L564 268 L564 259 L564 250 L564 242 L566 234 L567 225 L569 216 L574 206 L576 201 L580 195 L584 191 L588 186 L592 184 L596 180 L598 178 L601 176 L601 176 L606 182 "></path><path fill="none" d="M1352 244 L1350 248 L1340 252 L1315 249 L1277 242 L1237 238 L1201 237 L1185 233 L1171 225 L1152 216 L1125 213 L1100 214 L1079 214 L1075 212 L1073 210 L1070 207 L1069 207 L1068 207 L1074 213 "></path><path fill="none" d="M1219 101 L1216 102 L1206 107 L1189 113 L1164 123 L1144 131 L1130 141 L1076 162 L1074 162 L1079 168 "></path><path fill="none" d="M342 37 L343 37 L353 35 L369 35 L388 35 L411 37 L426 38 L439 40 L446 43 L449 48 L449 53 L451 59 L457 61 L466 64 L476 65 L489 69 L508 78 L534 93 L556 104 L573 113 L584 119 L587 121 L587 120 L586 113 L585 112 L591 117 "></path><path fill="none" d="M688 61 L688 62 L688 62 L694 68 "></path><path fill="none" d="M776 380 L777 379 L778 378 L779 378 L779 378 L779 378 L779 378 L779 378 L779 378 L780 377 L782 377 L782 377 L782 378 L779 380 L777 384 L774 386 L771 386 L773 385 L775 383 L779 377 L780 376 L780 376 L780 377 L779 379 L776 383 L770 386 L768 385 L769 384 L771 380 L775 378 L778 379 L778 379 L784 385 "></path><path fill="none" d="M868 222 L870 220 L879 214 L888 212 L895 214 L895 220 L887 228 L877 233 L870 234 L868 232 L871 226 L878 220 L887 214 L892 215 L889 220 L880 226 L869 232 L862 233 L862 231 L867 229 L870 225 L875 226 L878 231 L882 238 L880 247 L869 257 L841 265 L825 264 L826 253 L837 240 L847 230 L852 225 L853 225 L851 226 L846 229 L838 232 L832 233 L831 233 L833 231 L834 231 L835 231 L835 231 L841 237 "></path><path fill="none" d="M265 94 L265 94 L268 96 L273 100 L278 104 L288 107 L304 113 L325 121 L357 131 L383 139 L410 148 L437 160 L462 174 L488 187 L514 202 L528 212 L533 217 L533 219 L531 219 L528 217 L522 215 L528 221 "></path><path fill="none" d="M686 294 L686 294 L686 294 L688 294 L689 292 L691 289 L692 287 L692 287 L692 287 L691 286 L689 285 L687 283 L686 278 L686 273 L687 267 L691 259 L691 256 L689 258 L686 265 L676 274 L665 283 L653 288 L651 287 L655 280 L660 273 L665 266 L668 265 L669 266 L670 267 L670 267 L670 267 L671 266 L674 264 L677 261 L680 261 L683 262 L685 264 L687 267 L692 270 L695 273 L700 273 L705 269 L712 265 L719 260 L720 259 L719 260 L716 261 L712 260 L703 239 L701 240 L696 243 L688 248 L679 250 L676 249 L676 247 L676 244 L676 244 L677 246 L679 249 L680 251 L679 255 L678 255 L684 260 "></path><path fill="none" d="M756 449 L758 449 L769 450 L775 451 L773 452 L765 455 L753 457 L746 458 L740 459 L739 459 L739 459 L739 459 L740 458 L743 457 L750 455 L758 455 L765 456 L762 457 L755 458 L744 458 L738 458 L737 457 L742 456 L751 453 L759 452 L764 453 L761 456 L753 457 L740 459 L730 459 L724 458 L725 456 L733 453 L747 449 L766 446 L777 444 L779 444 L773 446 L760 447 L746 448 L733 448 L731 448 L732 447 L739 446 L744 444 L750 450 "></path><path fill="none" d="M1061 156 L1033 134 L1031 134 L1026 138 L1021 144 L1014 152 L1008 159 L1007 166 L1012 169 L1020 174 L1026 177 L1032 183 "></path><path fill="none" d="M1198 464 L1198 466 L1194 466 L1182 461 L1159 452 L1138 443 L1114 433 L1094 422 L1078 408 L1065 392 L1055 367 L1056 347 L1057 330 L1055 319 L1048 312 L1039 308 L1023 306 L1015 305 L1004 304 L997 304 L993 303 L988 303 L982 300 L978 295 L986 291 L987 291 L993 296 "></path><path fill="none" d="M782 195 L782 201 L782 207 L780 213 L780 217 L782 222 L783 232 L784 239 L784 244 L785 248 L785 252 L787 259 L787 267 L786 279 L783 289 L780 296 L782 301 L783 304 L786 307 L788 310 L791 311 L794 311 L797 311 L803 311 L808 311 L815 311 L825 311 L837 311 L844 313 L853 314 L860 313 L868 311 L878 308 L888 304 L897 300 L908 291 L917 283 L924 273 L930 262 L934 251 L941 235 L942 230 L943 212 L939 200 L925 188 L904 177 L879 168 L849 161 L826 160 L806 164 L784 169 L764 176 L747 185 L735 194 L731 201 L728 204 L728 206 L730 208 L733 210 L735 210 L741 215 "></path><path fill="none" d="M211 466 L213 461 L225 449 L251 429 L280 411 L313 393 L346 377 L377 362 L404 353 L426 347 L435 343 L435 343 L441 349 "></path><path fill="none" d="M689 243 L692 242 L697 239 L698 239 L698 240 L695 246 L694 250 L695 253 L697 256 L702 258 L705 260 L707 264 L708 268 L707 271 L704 274 L702 276 L701 277 L700 278 L698 280 L698 286 L697 289 L696 295 L693 298 L686 303 L677 306 L671 306 L670 304 L671 302 L674 300 L676 297 L677 296 L675 297 L665 300 L634 301 L629 297 L628 294 L630 291 L634 287 L640 285 L643 284 L643 284 L642 283 L641 282 L640 279 L638 277 L633 274 L629 269 L628 264 L630 258 L635 252 L643 251 L652 251 L657 252 L658 252 L658 252 L658 252 L657 251 L656 248 L655 244 L655 240 L658 235 L664 232 L669 233 L675 235 L679 241 L682 248 L682 253 L678 259 L674 262 L669 265 L665 265 L670 270 "></path><path fill="none" d="M188 228 L191 230 L202 233 L217 234 L239 235 L257 240 L277 247 L296 253 L310 260 L323 264 L341 264 L358 261 L378 259 L403 259 L431 260 L460 264 L477 267 L491 270 L498 275 L498 278 L504 284 "></path><path fill="none" d="M565 256 L565 255 L567 251 L570 248 L574 242 L577 237 L582 230 L586 223 L591 214 L594 206 L595 200 L596 193 L598 185 L601 178 L604 170 L608 161 L619 153 L631 144 L649 134 L666 128 L685 122 L705 117 L730 113 L744 111 L768 107 L785 105 L800 103 L812 102 L823 101 L837 100 L847 98 L858 97 L868 97 L879 98 L888 100 L898 101 L906 103 L915 105 L925 108 L933 112 L942 115 L949 120 L959 125 L966 132 L970 139 L976 146 L979 152 L983 158 L985 166 L987 173 L988 182 L988 191 L988 198 L988 206 L987 219 L985 225 L984 232 L982 238 L980 243 L978 249 L976 255 L973 261 L969 268 L967 274 L965 280 L964 286 L961 293 L959 298 L956 305 L952 311 L949 319 L947 325 L944 330 L941 334 L938 339 L933 344 L931 349 L928 353 L924 358 L921 364 L919 369 L915 376 L913 382 L911 387 L908 392 L907 396 L905 401 L903 406 L901 411 L897 414 L896 417 L894 421 L893 424 L892 428 L889 433 L886 439 L883 444 L879 450 L877 456 L875 461 L871 468 L868 474 L865 479 L861 485 L859 489 L857 495 L853 502 L851 507 L849 513 L846 519 L843 523 L841 528 L838 534 L831 551 L829 558 L828 567 L826 571 L825 577 L824 582 L823 586 L821 593 L821 596 L819 603 L819 607 L820 612 L820 616 L820 622 L821 626 L822 634 L825 641 L825 642 L826 649 L825 651 L825 655 L825 657 L825 658 L825 657 L825 657 L831 662 "></path></svg>