<svg id="svg" style="stroke:rgb(0,0,0);stroke-width:10px;height:900px;width:1600px;background-color:#EEE;top:0px; left0px; position:absolute;" version="1.1" viewBox="0 0 1600 900"><path fill="none" d="M498 538 L498 538 L498 538 L498 538 L497 540 L495 543 L492 546 L487 550 L479 557 L471 566 L464 574 L458 582 L451 590 L440 599 L429 609 L416 622 L407 631 L398 641 L390 649 L382 659 L373 667 L370 672 L367 675 L367 677 L367 678 L368 679 L374 685 "></path><path fill="none" d="M1047 308 L1050 309 L1050 308 L1047 307 L1043 303 L1037 299 L1031 293 L1023 284 L1017 278 L1010 272 L1003 266 L994 260 L984 252 L976 244 L967 234 L961 226 L954 217 L947 209 L938 198 L930 185 L924 173 L919 163 L914 157 L913 155 L913 154 L913 154 L913 155 L914 156 L916 157 L916 157 L922 163 "></path><path fill="none" d="M559 757 L560 757 L561 755 L561 750 L561 743 L560 730 L559 715 L559 698 L560 679 L560 655 L561 630 L561 598 L562 572 L564 545 L566 518 L568 490 L572 464 L576 436 L579 405 L582 381 L585 359 L588 337 L590 317 L594 293 L596 274 L598 253 L600 234 L602 216 L603 199 L604 180 L603 167 L602 156 L600 148 L596 142 L594 137 L591 132 L591 131 L591 131 L591 131 L591 131 L591 131 L590 132 L590 134 L590 134 L596 140 "></path><path fill="none" d="M724 171 L729 171 L737 172 L747 175 L760 180 L773 187 L779 193 L784 197 L786 199 L789 202 L792 207 L792 213 L792 223 L791 236 L788 250 L780 263 L771 272 L758 281 L743 288 L732 294 L723 296 L710 295 L698 293 L686 288 L675 283 L667 278 L659 272 L652 263 L649 251 L646 235 L646 219 L650 202 L656 187 L664 173 L677 159 L687 150 L698 146 L708 147 L714 149 L725 155 L735 165 L735 167 L741 173 "></path><path fill="none" d="M791 728 L791 728 L794 727 L796 724 L797 716 L796 704 L791 684 L785 658 L782 629 L780 587 L782 550 L784 512 L786 475 L789 438 L792 394 L795 351 L796 327 L798 299 L801 270 L803 242 L805 211 L805 190 L805 171 L804 156 L803 144 L802 136 L800 129 L800 125 L801 125 L801 125 L801 125 L801 125 L801 125 L801 125 L807 131 "></path><path fill="none" d="M1001 578 L1004 581 L1009 584 L1015 585 L1019 587 L1023 588 L1027 590 L1031 592 L1034 594 L1035 596 L1035 599 L1035 603 L1035 609 L1038 616 L1041 619 L1044 624 L1046 627 L1049 631 L1050 636 L1053 646 L1057 652 L1057 657 L1055 661 L1047 669 L1038 677 L1026 689 L1017 694 L1010 697 L1002 701 L986 706 L980 708 L967 710 L954 712 L943 710 L932 707 L914 696 L902 685 L897 676 L895 665 L897 653 L898 641 L899 629 L904 615 L908 603 L916 592 L923 584 L931 578 L937 574 L947 574 L955 575 L964 578 L973 580 L980 582 L985 586 L991 590 L995 592 L1001 598 L1002 598 L1008 604 "></path><path fill="none" d="M1077 385 L1081 386 L1082 387 L1081 388 L1080 388 L1077 388 L1075 390 L1074 390 L1070 391 L1065 392 L1061 394 L1056 397 L1051 399 L1044 403 L1029 409 L1015 415 L998 423 L982 432 L967 440 L955 447 L938 454 L924 460 L910 467 L900 473 L893 477 L888 479 L886 481 L886 482 L886 482 L892 488 "></path><path fill="none" d="M1040 475 L1040 475 L1040 475 L1040 473 L1037 471 L1034 469 L1032 466 L1031 465 L1028 463 L1026 460 L1017 457 L1007 453 L992 450 L978 446 L967 441 L960 435 L954 428 L949 422 L942 415 L932 405 L925 398 L919 392 L912 388 L908 386 L906 386 L906 386 L907 387 L908 387 L914 393 "></path><path fill="none" d="M1075 171 L1075 172 L1075 173 L1074 174 L1071 177 L1062 180 L1052 186 L1044 191 L1037 196 L1033 201 L1026 205 L1013 213 L1001 220 L992 227 L984 234 L973 244 L966 248 L952 258 L940 265 L930 272 L923 280 L917 288 L908 294 L900 300 L897 303 L895 303 L895 303 L895 303 L895 303 L901 309 "></path><path fill="none" d="M748 697 L748 698 L748 698 L747 698 L744 696 L742 694 L740 692 L738 691 L735 688 L731 684 L729 678 L724 671 L719 664 L713 655 L704 643 L693 634 L682 623 L671 613 L662 601 L655 590 L646 575 L639 566 L634 560 L632 556 L632 556 L632 556 L635 558 L641 564 L647 570 "></path><path fill="none" d="M740 552 L738 552 L738 552 L738 552 L735 554 L730 557 L724 563 L719 569 L717 573 L712 578 L704 586 L695 593 L686 600 L681 605 L675 612 L668 623 L659 635 L651 648 L641 660 L635 667 L631 672 L628 673 L628 675 L629 677 L635 683 "></path><path fill="none" d="M725 386 L726 391 L726 393 L726 394 L728 394 L729 394 L735 393 L738 393 L742 394 L743 398 L746 404 L748 409 L749 415 L749 418 L748 423 L746 429 L742 436 L738 444 L734 450 L725 455 L717 459 L708 464 L702 465 L697 465 L687 464 L677 461 L670 459 L663 454 L657 448 L652 442 L650 435 L650 426 L652 417 L656 409 L661 399 L667 390 L676 381 L683 375 L691 373 L699 374 L705 374 L711 376 L718 381 L718 384 L724 390 "></path><path fill="none" d="M525 264 L525 264 L528 265 L528 265 L528 264 L526 263 L524 260 L522 258 L519 254 L514 250 L502 239 L494 232 L480 217 L471 208 L465 197 L457 186 L445 173 L435 163 L427 155 L422 151 L419 149 L417 149 L417 151 L417 153 L423 159 "></path><path fill="none" d="M1102 531 L1102 531 L1100 531 L1094 530 L1082 530 L1061 528 L1021 526 L982 524 L948 520 L887 514 L835 511 L783 508 L717 505 L664 502 L615 501 L568 500 L526 499 L477 496 L441 494 L409 493 L383 490 L362 489 L349 487 L340 485 L334 484 L330 484 L330 484 L331 484 L331 485 L335 487 L335 487 L341 493 "></path><path fill="none" d="M486 369 L488 369 L494 371 L500 372 L504 373 L507 374 L511 375 L513 376 L516 378 L517 379 L518 380 L519 382 L520 385 L523 387 L525 392 L526 394 L528 398 L529 402 L529 404 L530 408 L530 415 L530 416 L530 418 L529 421 L528 423 L525 427 L520 432 L516 435 L511 438 L504 440 L498 440 L492 440 L486 440 L481 439 L476 438 L470 435 L464 433 L458 429 L453 423 L451 418 L449 412 L447 405 L446 398 L447 388 L449 382 L452 376 L456 373 L461 369 L464 367 L470 366 L474 366 L476 367 L480 367 L482 367 L486 367 L488 367 L489 368 L491 368 L492 369 L492 371 L492 372 L492 373 L498 379 "></path><path fill="none" d="M520 130 L520 132 L520 132 L519 134 L519 135 L518 136 L518 138 L516 140 L514 142 L513 144 L510 146 L505 149 L501 153 L498 157 L494 162 L491 166 L488 171 L482 179 L476 187 L468 198 L455 210 L441 223 L427 240 L419 251 L413 259 L407 265 L403 270 L402 272 L402 271 L403 271 L409 277 "></path><path fill="none" d="M483 684 L483 686 L483 689 L483 688 L482 686 L479 683 L471 676 L464 667 L452 652 L443 636 L434 621 L425 604 L414 586 L402 569 L392 558 L385 552 L383 552 L384 552 L390 558 "></path><path fill="none" d="M1144 359 L1146 359 L1146 359 L1137 360 L1112 360 L1071 361 L1007 362 L952 361 L897 360 L843 356 L789 353 L735 350 L669 349 L617 347 L571 343 L526 338 L485 333 L437 330 L407 326 L383 324 L365 321 L352 319 L343 318 L337 318 L332 318 L332 318 L332 318 L332 318 L330 318 L336 324 "></path><path fill="none" d="M894 520 L893 525 L883 545 L865 563 L832 587 L801 604 L768 618 L732 630 L693 636 L651 636 L596 625 L554 606 L517 580 L491 549 L473 513 L461 465 L457 435 L455 386 L455 349 L457 314 L463 282 L473 253 L493 222 L517 203 L549 186 L588 173 L626 162 L662 155 L704 154 L736 156 L767 160 L797 166 L826 174 L852 181 L880 192 L900 202 L917 210 L928 219 L934 226 L940 233 L947 239 L959 246 L965 252 "></path></svg>